<?xml version="1.0" standalone="no"?>
<!DOCTYPE svg PUBLIC "-//W3C//DTD SVG 20010904//EN"
 "http://www.w3.org/TR/2001/REC-SVG-20010904/DTD/svg10.dtd">
<svg version="1.0" xmlns="http://www.w3.org/2000/svg"
 width="850.000000pt" height="546.000000pt" viewBox="0 0 850.000000 546.000000"
 preserveAspectRatio="xMidYMid meet">

<g transform="translate(0.000000,546.000000) scale(0.100000,-0.100000)"
fill="#000000" stroke="none">
<path d="M3695 4839 c-560 -75 -1033 -453 -1245 -996 -41 -104 -51 -148 -24
-103 11 19 14 20 10 5 -3 -11 -12 -47 -21 -80 -27 -106 -45 -238 -44 -330 l1
-90 18 150 c17 140 47 301 56 293 2 -2 -6 -46 -16 -98 -11 -52 -22 -149 -24
-215 -2 -66 -2 -102 0 -80 21 232 56 407 107 535 144 357 415 639 773 802 187
86 331 118 559 125 149 5 184 2 280 -17 189 -38 362 -103 490 -182 79 -50 195
-138 250 -189 28 -26 59 -56 70 -66 44 -39 176 -231 228 -332 68 -133 121
-296 143 -441 14 -94 16 -327 4 -425 -38 -309 -166 -596 -361 -809 -73 -80
-59 -81 21 -1 39 38 70 66 70 61 0 -14 -87 -120 -147 -177 -72 -70 -186 -158
-258 -199 -30 -17 -55 -36 -55 -41 0 -5 -22 -20 -50 -34 -27 -14 -50 -28 -50
-30 0 -18 200 92 290 158 240 177 407 394 513 667 85 220 113 360 122 618 2
63 7 117 10 120 8 8 -1 -313 -10 -368 -34 -207 -84 -361 -164 -508 -28 -51
-51 -96 -51 -101 0 -4 -6 -13 -12 -19 -7 -7 -13 -17 -13 -21 0 -12 -30 -52
-114 -153 -168 -203 -404 -365 -666 -457 -49 -18 -98 -30 -107 -27 -11 2 -15
0 -12 -6 5 -7 -2 -9 -19 -6 -15 3 -24 2 -22 -2 5 -9 -88 -28 -196 -40 l-74 -9
89 4 c49 2 86 2 84 -1 -3 -2 -59 -11 -124 -19 l-119 -14 130 4 c360 11 733
187 1010 476 183 191 305 404 370 643 14 50 22 102 19 116 -5 20 -4 22 6 10 9
-12 10 -7 5 25 -3 25 -2 35 3 27 22 -33 38 267 23 423 -38 388 -171 681 -430
949 -233 239 -513 392 -838 457 -124 24 -375 34 -488 18z m572 -55 c-3 -3 -12
-4 -19 -1 -8 3 -5 6 6 6 11 1 17 -2 13 -5z m554 -281 c13 -16 12 -17 -3 -4
-17 13 -22 21 -14 21 2 0 10 -8 17 -17z m84 -73 c10 -11 16 -20 13 -20 -3 0
-13 9 -23 20 -10 11 -16 20 -13 20 3 0 13 -9 23 -20z m-2444 -617 c-12 -20
-14 -14 -5 12 4 9 9 14 11 11 3 -2 0 -13 -6 -23z m8 -72 c-7 -23 -14 -39 -16
-37 -3 2 1 23 8 45 7 23 14 39 16 37 3 -2 -1 -23 -8 -45z m2928 -183 c-3 -8
-6 -5 -6 6 -1 11 2 17 5 13 3 -3 4 -12 1 -19z m10 -70 c-3 -7 -5 -2 -5 12 0
14 2 19 5 13 2 -7 2 -19 0 -25z m-257 -1142 c0 -2 -8 -10 -17 -17 -16 -13 -17
-12 -4 4 13 16 21 21 21 13z m-68 -83 c-90 -107 -190 -201 -278 -262 -65 -45
-47 -27 46 46 41 33 118 105 170 161 52 56 97 102 98 102 2 0 -14 -21 -36 -47z
m-899 -530 c-7 -2 -19 -2 -25 0 -7 3 -2 5 12 5 14 0 19 -2 13 -5z"/>
<path d="M4064 4319 c-185 -38 -479 -161 -626 -260 -234 -158 -320 -377 -224
-567 39 -77 130 -183 310 -361 l165 -165 -91 -48 c-370 -196 -539 -412 -452
-580 108 -209 571 -239 773 -50 70 66 95 125 95 233 1 81 -1 90 -41 170 -24
48 -74 122 -117 174 l-75 90 97 38 c122 47 443 152 632 207 160 46 199 66 110
57 -82 -8 -547 -146 -769 -229 l-104 -38 -156 148 c-180 172 -254 256 -302
344 -32 59 -34 69 -34 158 0 119 20 165 120 266 286 292 975 489 1117 320 23
-27 32 -76 23 -123 -7 -40 -58 -96 -113 -125 -62 -33 -26 -62 39 -33 74 34
129 119 129 199 -1 53 -30 118 -66 143 -78 55 -266 69 -440 32z m-259 -1481
c127 -155 171 -270 145 -378 -30 -123 -186 -217 -390 -236 -138 -12 -288 37
-346 113 -39 52 -45 132 -14 193 51 100 192 215 416 339 60 34 110 61 111 61
1 0 36 -42 78 -92z"/>
<path d="M2565 2471 c23 -45 78 -123 138 -196 57 -68 202 -210 232 -227 11 -6
-24 31 -78 82 -108 103 -192 201 -256 299 -49 76 -60 89 -36 42z"/>
<path d="M4813 2174 l-28 -25 33 22 c17 13 32 24 32 26 0 8 -11 1 -37 -23z"/>
<path d="M2960 2036 c0 -2 8 -10 18 -17 15 -13 16 -12 3 4 -13 16 -21 21 -21
13z"/>
<path d="M3010 1996 c0 -2 8 -10 18 -17 15 -13 16 -12 3 4 -13 16 -21 21 -21
13z"/>
<path d="M3478 1763 c7 -3 16 -2 19 1 4 3 -2 6 -13 5 -11 0 -14 -3 -6 -6z"/>
<path d="M3518 1753 c7 -3 16 -2 19 1 4 3 -2 6 -13 5 -11 0 -14 -3 -6 -6z"/>
<path d="M3923 1743 c9 -2 25 -2 35 0 9 3 1 5 -18 5 -19 0 -27 -2 -17 -5z"/>
<path d="M4028 1743 c7 -3 16 -2 19 1 4 3 -2 6 -13 5 -11 0 -14 -3 -6 -6z"/>
<path d="M3878 1713 c12 -2 32 -2 45 0 12 2 2 4 -23 4 -25 0 -35 -2 -22 -4z"/>
<path d="M2189 1461 c-69 -22 -99 -63 -99 -134 1 -69 27 -91 158 -132 43 -14
87 -34 97 -45 45 -50 0 -120 -78 -120 -50 0 -104 30 -117 64 -7 21 -13 23 -41
17 -42 -8 -45 -20 -17 -61 33 -48 79 -72 152 -77 115 -10 189 45 189 139 0 72
-33 99 -171 143 -86 27 -104 41 -104 80 0 82 158 99 193 21 10 -21 17 -24 38
-19 38 9 41 12 33 31 -13 33 -37 59 -67 74 -37 20 -131 30 -166 19z"/>
<path d="M3432 1456 c-65 -21 -111 -62 -139 -124 -22 -47 -25 -64 -21 -131 4
-65 9 -85 34 -122 67 -99 196 -137 304 -88 86 39 129 103 137 204 13 152 -71
256 -217 270 -34 3 -71 -1 -98 -9z m175 -82 c44 -33 63 -66 69 -121 12 -96
-18 -163 -88 -199 -44 -23 -120 -20 -166 6 -56 31 -82 83 -82 159 0 85 34 142
100 170 39 17 136 8 167 -15z"/>
<path d="M2660 1220 l0 -240 35 0 35 0 0 105 0 105 120 0 120 0 0 -105 0 -105
35 0 35 0 0 240 0 240 -35 0 -35 0 0 -105 0 -105 -120 0 -120 0 0 105 0 105
-35 0 -35 0 0 -240z"/>
<path d="M3980 1220 l0 -240 35 0 35 0 0 90 0 90 73 0 c85 0 131 19 164 69 46
68 19 182 -51 215 -25 12 -63 16 -145 16 l-111 0 0 -240z m235 155 c27 -26 34
-80 15 -115 -13 -24 -62 -40 -126 -40 l-54 0 0 90 0 90 70 0 c62 0 74 -3 95
-25z"/>
<path d="M4530 1220 l0 -240 35 0 35 0 2 186 3 185 122 -185 122 -186 41 0 40
0 0 240 0 240 -35 0 -35 0 -2 -187 -3 -188 -124 188 -124 187 -38 0 -39 0 0
-240z"/>
<path d="M5190 1220 l0 -240 130 0 130 0 0 30 0 30 -95 0 -95 0 0 75 0 75 85
0 85 0 0 30 0 30 -85 0 -85 0 0 75 0 75 95 0 95 0 0 30 0 30 -130 0 -130 0 0
-240z"/>
<path d="M5630 1430 l0 -30 60 0 60 0 0 -210 0 -210 35 0 35 0 0 210 0 210 60
0 60 0 0 30 0 30 -155 0 -155 0 0 -30z"/>
</g>
</svg>
